<svg xmlns="http://www.w3.org/2000/svg" width="199.08" height="204.439" viewBox="0 0 199.08 204.439">
  <g id="settings_4_" data-name="settings (4)" transform="translate(-6.71)">
    <g id="Group_5" data-name="Group 5" transform="translate(6.71)">
      <path id="Path_3" data-name="Path 3" d="M202.344,124.623l-18.791-14.694a73.98,73.98,0,0,0,.443-7.718,71.751,71.751,0,0,0-.443-7.718l18.808-14.7a9.214,9.214,0,0,0,2.223-11.738L185.043,34.243a9.058,9.058,0,0,0-11.3-4.063l-22.173,8.9a76.02,76.02,0,0,0-13.314-7.726L134.879,7.837A9.046,9.046,0,0,0,125.85,0H86.666a9.022,9.022,0,0,0-9.012,7.769l-3.382,23.6A78.369,78.369,0,0,0,60.983,39.1L38.751,30.172a9.239,9.239,0,0,0-11.219,3.995L7.966,68.019a9.16,9.16,0,0,0,2.215,11.8L28.972,94.511a67.4,67.4,0,0,0,0,15.427l-18.808,14.7a9.216,9.216,0,0,0-2.215,11.738l19.541,33.809a9.041,9.041,0,0,0,11.3,4.063l22.173-8.9a76.692,76.692,0,0,0,13.306,7.726l3.373,23.51a9.04,9.04,0,0,0,9.029,7.854h39.184a9.031,9.031,0,0,0,9.021-7.769l3.382-23.6a78.733,78.733,0,0,0,13.288-7.735l22.233,8.927a9.153,9.153,0,0,0,3.339.631A8.993,8.993,0,0,0,185,170.28l19.626-33.988A9.2,9.2,0,0,0,202.344,124.623Zm-96.086,11.67a34.073,34.073,0,1,1,34.073-34.073A34.107,34.107,0,0,1,106.258,136.292Z" transform="translate(-6.71)" fill="#28ace8"/>
    </g>
  </g>
</svg>
